<svg width="35" height="35" viewBox="0 0 35 35" fill="none" xmlns="http://www.w3.org/2000/svg">
<path fill-rule="evenodd" clip-rule="evenodd" d="M0 17.5C0 7.83502 7.83502 0 17.5 0C27.165 0 35 7.83502 35 17.5C35 27.165 27.165 35 17.5 35C7.83502 35 0 27.165 0 17.5Z" fill="#4C6C91"/>
<path fill-rule="evenodd" clip-rule="evenodd" d="M18.4154 23.243C18.4154 23.243 18.7523 23.2062 18.9249 23.0243C19.0828 22.8576 19.0773 22.5431 19.0773 22.5431C19.0773 22.5431 19.0563 21.0742 19.7511 20.8573C20.4359 20.644 21.3151 22.2778 22.2482 22.906C22.953 23.381 23.488 23.277 23.488 23.277L25.9814 23.243C25.9814 23.243 27.2851 23.1641 26.667 22.1577C26.6159 22.0753 26.3064 21.413 24.8136 20.0526C23.2497 18.6285 23.4597 18.8588 25.3423 16.3952C26.489 14.895 26.9473 13.9791 26.804 13.5875C26.6679 13.2129 25.8243 13.3124 25.8243 13.3124L23.0178 13.3294C23.0178 13.3294 22.8096 13.3016 22.6553 13.3921C22.5047 13.4808 22.407 13.6879 22.407 13.6879C22.407 13.6879 21.9633 14.8484 21.3708 15.836C20.1209 17.9187 19.6215 18.029 19.417 17.8999C18.9413 17.5979 19.06 16.6883 19.06 16.0421C19.06 14.023 19.3722 13.1815 18.4529 12.9637C18.1479 12.8911 17.9233 12.8437 17.1427 12.8356C16.1412 12.8257 15.2939 12.8392 14.8137 13.0695C14.4942 13.2227 14.2476 13.5651 14.3983 13.5848C14.5836 13.609 15.0036 13.6959 15.2264 13.9935C15.514 14.3779 15.5039 15.2401 15.5039 15.2401C15.5039 15.2401 15.6692 17.6167 15.1177 17.9116C14.7397 18.1141 14.2212 17.701 13.1064 15.8109C12.5358 14.843 12.1049 13.773 12.1049 13.773C12.1049 13.773 12.0218 13.5731 11.873 13.4656C11.6931 13.3357 11.442 13.2953 11.442 13.2953L8.7752 13.3124C8.7752 13.3124 8.3744 13.3231 8.22741 13.4943C8.09685 13.6457 8.21736 13.9603 8.21736 13.9603C8.21736 13.9603 10.3054 18.7558 12.67 21.1728C14.8383 23.3882 17.2998 23.243 17.2998 23.243H18.4154Z" fill="white"/>
</svg>
