<svg width="24" height="24" viewBox="0 0 24 24" fill="none" xmlns="http://www.w3.org/2000/svg">
<g clip-path="url(#clip0_209_1367)">
<path d="M13.5 17.25H12.75V10.5465C12.75 10.5382 12.7477 10.5308 12.7477 10.5233C12.7477 10.5157 12.75 10.5083 12.75 10.5C12.75 10.086 12.414 9.75 12 9.75H10.5C10.086 9.75 9.75 10.086 9.75 10.5C9.75 10.914 10.086 11.25 10.5 11.25H11.25V17.25H10.5C10.086 17.25 9.75 17.586 9.75 18C9.75 18.414 10.086 18.75 10.5 18.75H13.5C13.914 18.75 14.25 18.414 14.25 18C14.25 17.586 13.914 17.25 13.5 17.25ZM12 8.25C12.8287 8.25 13.5 7.578 13.5 6.75C13.5 5.922 12.8287 5.25 12 5.25C11.1713 5.25 10.5 5.922 10.5 6.75C10.5 7.578 11.172 8.25 12 8.25ZM12 0C5.373 0 0 5.37225 0 12C0 18.6278 5.37225 24 12 24C18.6278 24 24 18.6278 24 12C24 5.37225 18.6278 0 12 0ZM12 22.5233C6.21 22.5233 1.5 17.7892 1.5 11.9992C1.5 6.20925 6.21 1.49925 12 1.49925C17.79 1.49925 22.5 6.20925 22.5 11.9992C22.5 17.7892 17.79 22.5233 12 22.5233Z" fill="black" fill-opacity="0.5"/>
</g>
<defs>
<clipPath id="clip0_209_1367">
<rect width="24" height="24" fill="white"/>
</clipPath>
</defs>
</svg>
