<svg width="18" height="15" viewBox="0 0 18 15" fill="none" xmlns="http://www.w3.org/2000/svg">
<g clip-path="url(#clip0_175_989)">
<path d="M18 1.76972C18 0.798663 17.2128 0.0114746 16.2418 0.0114746H1.75824C0.787189 0.0114746 0 0.798663 0 1.76972V13.2302C0 14.2012 0.787189 14.9884 1.75824 14.9884H16.2418C17.2128 14.9884 18 14.2012 18 13.2302V1.76972ZM1.76766 1.41656H16.2556C16.4495 1.41656 16.6056 1.57121 16.6056 1.76513V1.78038L9.2599 9.12683C9.1703 9.21643 9.06608 9.22982 9.01169 9.22982C8.95729 9.22982 8.85272 9.21643 8.7631 9.12683L1.41573 1.77938V1.76513C1.41573 1.57121 1.57376 1.41656 1.76766 1.41656ZM16.2556 13.5833H1.76766C1.57376 13.5833 1.41573 13.4228 1.41573 13.2289V3.7686L7.7687 10.1215C8.10079 10.4535 8.54239 10.6364 9.01202 10.6364C9.48171 10.6364 9.92243 10.4535 10.2545 10.1214L16.6056 3.76959V13.2289C16.6056 13.4228 16.4495 13.5833 16.2556 13.5833Z" fill="white"/>
</g>
<defs>
<clipPath id="clip0_175_989">
<rect width="18" height="14.9769" fill="white" transform="translate(0 0.0114746)"/>
</clipPath>
</defs>
</svg>
