<svg width="86" height="59" viewBox="0 0 86 59" fill="none" xmlns="http://www.w3.org/2000/svg">
<path d="M10.6957 51.7168C8.9878 55.0441 11.4039 59 15.1439 59H22.0737C23.9485 59 25.6658 57.9512 26.5219 56.2832L36.6891 36.4749C37.0517 35.7685 37.2409 34.9858 37.2409 34.1917V5C37.2409 2.23858 35.0023 0 32.2409 0H5.90063C3.1392 0 0.90062 2.23858 0.90062 5V30.4C0.90062 33.1614 3.1392 35.4 5.90062 35.4H19.0708L10.6957 51.7168ZM59.1493 51.7168C57.4415 55.0441 59.8576 59 63.5976 59H70.5274C72.4022 59 74.1195 57.9512 74.9756 56.2832L85.1428 36.4749C85.5054 35.7685 85.6946 34.9858 85.6946 34.1917V5C85.6946 2.23858 83.456 0 80.6946 0H54.3543C51.5929 0 49.3543 2.23858 49.3543 5V30.4C49.3543 33.1614 51.5929 35.4 54.3543 35.4H67.5244L59.1493 51.7168Z" fill="#F8F8F8"/>
</svg>
