<svg width="40" height="40" viewBox="0 0 40 40" fill="none" xmlns="http://www.w3.org/2000/svg">
<g clip-path="url(#clip0_197_3911)">
<path d="M33.7391 14.0185L27.6468 11.1308C28.5774 10.171 28.9727 8.81517 28.6808 7.48626C28.1998 5.29617 26.145 3.94945 24.0032 4.41945C23.921 4.4375 23.8455 4.46945 23.7778 4.51125C23.6887 4.47641 23.5983 4.44399 23.506 4.41719C22.3619 4.08477 21.1704 4.40688 20.2377 5.30118L10.7645 14.384C9.74058 15.3659 9.13089 16.2655 8.72589 17.3921C8.6198 17.6871 8.52292 17.9886 8.42925 18.2803C8.11987 19.2435 7.8255 20.1566 7.22979 20.8245L6.66706 20.2376C6.33385 19.8901 5.88424 19.6932 5.40096 19.6829C4.91815 19.6764 4.46018 19.8507 4.11276 20.1838L0.555404 23.5946C-0.163582 24.2839 -0.187722 25.43 0.501732 26.1489L13.0781 39.2657C13.4112 39.6132 13.8609 39.8101 14.3442 39.8203C14.3573 39.8205 14.3703 39.8207 14.3833 39.8207C14.8522 39.8207 15.2944 39.6435 15.6325 39.3194L17.6965 37.3405C17.9866 37.0623 17.9963 36.6016 17.7181 36.3115C17.44 36.0215 16.9793 36.0116 16.6891 36.2898L14.625 38.2689C14.5349 38.3554 14.43 38.3652 14.3747 38.3651C14.32 38.364 14.2151 38.3486 14.1286 38.2584L11.1175 35.1178L15.1817 31.2211L18.1929 34.3617C18.4711 34.6519 18.9318 34.6615 19.2218 34.3834C19.512 34.1052 19.5217 33.6445 19.2435 33.3544L18.4416 32.518L23.4916 27.7779C23.7847 27.5028 23.7993 27.0422 23.5242 26.7491C23.2491 26.456 22.7886 26.4414 22.4955 26.7165L17.4342 31.4672L8.2398 21.8778C9.09363 20.97 9.46019 19.8301 9.81503 18.7256C9.90917 18.4326 9.99792 18.156 10.0956 17.8845C10.4239 16.9713 10.9095 16.2615 11.7718 15.4346L21.2451 6.3518C21.8003 5.81938 22.459 5.62868 23.0997 5.81485C23.7366 5.99993 24.2479 6.52672 24.4026 7.1568C24.5698 7.8372 24.2995 8.55931 23.636 9.19571L16.9532 15.6035C16.663 15.8817 16.6533 16.3423 16.9315 16.6324L17.4419 17.1649C17.8528 17.5935 18.0722 18.1564 18.0597 18.75C18.0472 19.3435 17.8043 19.8966 17.3758 20.3075L15.2461 22.3494C14.956 22.6276 14.9463 23.0882 15.2245 23.3784C15.3675 23.5275 15.5585 23.6025 15.75 23.6025C15.9311 23.6025 16.1125 23.5354 16.2535 23.4001L18.3832 21.3582C19.0924 20.6782 19.4943 19.7629 19.515 18.7806C19.5357 17.7983 19.1726 16.8667 18.4926 16.1576L18.4858 16.1505L23.8958 10.9634L33.1158 15.3336C33.2164 15.3813 33.3225 15.404 33.427 15.404C33.6995 15.404 33.9606 15.2503 34.0851 14.9878C34.2572 14.6247 34.1023 14.1906 33.7391 14.0185ZM14.1744 30.1705L10.1102 34.0672L1.55252 25.1418C1.42064 25.0043 1.42548 24.7769 1.56283 24.6454L5.12018 21.2346C5.21034 21.1481 5.3158 21.1393 5.37049 21.1383C5.42526 21.1395 5.5301 21.1549 5.61659 21.245L14.1744 30.1705ZM26.3788 10.325C26.3272 10.3672 26.2835 10.4153 26.2466 10.467L24.9939 9.87329C25.774 8.95017 26.0731 7.85634 25.8162 6.80969C25.7323 6.46805 25.5896 6.14407 25.4011 5.8486C26.301 6.06321 27.038 6.79126 27.2592 7.79845C27.4669 8.74415 27.1295 9.71236 26.3788 10.325Z" fill="#FF1F1F"/>
<path d="M32.4122 1.36259C32.3757 0.962199 32.022 0.66587 31.6215 0.703839L10.8902 2.59173C10.4628 2.63064 10.0755 2.83439 9.79981 3.16541C9.52403 3.49642 9.39356 3.91416 9.43255 4.3415L9.55653 5.70401C9.5909 6.08198 9.90825 6.3658 10.2804 6.3658C10.3025 6.3658 10.3249 6.36487 10.3473 6.36276C10.7475 6.32635 11.0425 5.97237 11.0061 5.57213L10.8821 4.20955C10.8773 4.15799 10.899 4.12002 10.9181 4.09705C10.9372 4.07424 10.9707 4.04603 11.0223 4.04127L31.7534 2.15337C32.1538 2.11689 32.4487 1.7629 32.4122 1.36259Z" fill="#FF1F1F"/>
<path d="M39.9927 11.9387L39.0554 1.64368C38.9749 0.759542 38.1906 0.104697 37.3055 0.186026L35.5504 0.34587C35.1502 0.382276 34.8552 0.736339 34.8917 1.13657C34.9281 1.53681 35.2809 1.83158 35.6824 1.79525L37.4374 1.6354C37.5199 1.62751 37.5982 1.69204 37.6059 1.77564L38.5433 12.0707C38.548 12.1222 38.5262 12.1604 38.5072 12.1832C38.4882 12.2061 38.4547 12.2344 38.4031 12.239L36.1491 12.4443C35.7489 12.4807 35.454 12.8346 35.4905 13.235C35.5248 13.6128 35.8422 13.8968 36.2144 13.8966C36.2365 13.8966 36.2588 13.8957 36.2811 13.8936L38.5351 13.6883C38.9624 13.6494 39.3498 13.4457 39.6255 13.1146C39.9013 12.7838 40.0317 12.366 39.9927 11.9387Z" fill="#FF1F1F"/>
<path d="M36.5378 9.37207C35.3885 9.31785 34.4431 8.41113 34.3384 7.26285C34.2295 6.06605 35.0361 4.99487 36.2148 4.7712C36.6096 4.69636 36.8691 4.3155 36.7942 3.92057C36.7193 3.52565 36.3379 3.26604 35.9435 3.3412C34.0248 3.70511 32.7117 5.44784 32.8891 7.39488C33.0591 9.26269 34.5984 10.7377 36.4695 10.8259C36.4811 10.8264 36.4927 10.8267 36.5042 10.8267C36.8903 10.8267 37.2123 10.5229 37.2306 10.1332C37.2495 9.73168 36.9393 9.39098 36.5378 9.37207Z" fill="#FF1F1F"/>
<path d="M16.8542 5.93927L14.9641 5.03497C14.163 4.65161 13.1996 4.99161 12.8164 5.7927L9.75896 12.183C9.58544 12.5455 9.7388 12.9801 10.1014 13.1537C10.2027 13.2022 10.3096 13.2251 10.4149 13.2251C10.6864 13.2251 10.9469 13.0724 11.0719 12.8112L14.1294 6.42091C14.1657 6.34512 14.2603 6.31177 14.3359 6.34794L16.2258 7.25224C16.5886 7.42583 17.0231 7.27231 17.1965 6.90989C17.3701 6.54739 17.2167 6.11278 16.8542 5.93927Z" fill="#FF1F1F"/>
<path d="M39.7137 17.4005C39.5703 16.9943 39.2782 16.6685 38.8911 16.4832L37.3012 15.7226C36.9386 15.549 36.5041 15.7025 36.3306 16.065C36.1572 16.4275 36.3104 16.8621 36.6729 17.0356L38.2628 17.7962C38.3094 17.8186 38.3311 17.8567 38.341 17.8847C38.351 17.9128 38.3581 17.9561 38.3357 18.0027L33.8741 27.3278C33.8379 27.4035 33.7433 27.4372 33.6628 27.3985L21.3812 21.6272C21.0174 21.4563 20.5839 21.6127 20.413 21.9764C20.2421 22.3401 20.3984 22.7736 20.7621 22.9446L33.0393 28.7137C33.2629 28.8208 33.4991 28.8713 33.7318 28.8713C34.3328 28.8713 34.9107 28.5335 35.1871 27.9561L39.6487 18.6308C39.834 18.2438 39.8569 17.8068 39.7137 17.4005Z" fill="#FF1F1F"/>
<path d="M27.7806 15.5413C27.4245 14.5319 26.6966 13.7215 25.731 13.2594C25.1856 12.9985 24.6046 12.8661 24.0036 12.8661C22.4685 12.8661 21.0485 13.7605 20.3863 15.1447C19.4327 17.1381 20.2784 19.5358 22.2717 20.4895C22.8172 20.7503 23.3982 20.8827 23.9992 20.8827C25.5342 20.8827 26.9542 19.9883 27.6164 18.6041C28.0785 17.6386 28.1367 16.5508 27.7806 15.5413ZM26.3034 17.9759C25.8816 18.8575 24.9771 19.4272 23.9991 19.4272C23.6174 19.4272 23.2477 19.3429 22.8999 19.1765C21.6306 18.5691 21.0919 17.0423 21.6992 15.7729C22.121 14.8912 23.0256 14.3216 24.0036 14.3216C24.3853 14.3216 24.755 14.4059 25.1028 14.5723C25.7177 14.8665 26.1812 15.3826 26.408 16.0255C26.6348 16.6683 26.5976 17.3609 26.3034 17.9759Z" fill="#FF1F1F"/>
<path d="M36.1067 18.4976C34.272 17.8284 32.252 18.654 31.4082 20.4176C30.5987 22.1096 31.1666 24.1645 32.7291 25.1975C32.8526 25.2793 32.992 25.3183 33.1299 25.3183C33.366 25.3183 33.5976 25.2036 33.7376 24.9919C33.9593 24.6566 33.8672 24.2052 33.532 23.9834C32.5721 23.3488 32.2237 22.0859 32.7213 21.0459C33.24 19.9618 34.481 19.454 35.6082 19.865C35.9861 20.0028 36.4036 19.808 36.5412 19.4305C36.6788 19.053 36.4844 18.6353 36.1067 18.4976Z" fill="#FF1F1F"/>
</g>
<defs>
<clipPath id="clip0_197_3911">
<rect width="40" height="40" fill="white"/>
</clipPath>
</defs>
</svg>
