<?xml version="1.0" encoding="utf-8"?><svg viewBox="0 0 25 25" xmlns="http://www.w3.org/2000/svg" xmlns:xlink="http://www.w3.org/1999/xlink"><style>:root>svg{display:none}:root>svg:target{display:block}</style><svg viewBox="0 0 25 25" id="arrow-left" xmlns="http://www.w3.org/2000/svg"><path d="M8.293 12.293a1 1 0 000 1.414l6.364 6.364a1 1 0 001.414-1.414L10.414 13l5.657-5.657a1 1 0 00-1.414-1.414l-6.364 6.364zM10 12H9v2h1v-2z"/></svg><svg viewBox="0 0 25 25" id="arrow-right" xmlns="http://www.w3.org/2000/svg"><path d="M16.707 12.707a1 1 0 000-1.414l-6.364-6.364A1 1 0 108.93 6.343L14.586 12l-5.657 5.657a1 1 0 001.414 1.414l6.364-6.364zM15 13h1v-2h-1v2z"/></svg><svg viewBox="0 0 18 15" id="mail" xmlns="http://www.w3.org/2000/svg"><g clip-path="url(#cclip0_175_989)"><path d="M18 1.77C18 .799 17.213.01 16.242.01H1.758C.788.011 0 .8 0 1.77v11.46c0 .971.787 1.758 1.758 1.758h14.484c.97 0 1.758-.787 1.758-1.758V1.77zM1.768 1.417h14.488c.194 0 .35.154.35.348v.015L9.26 9.127a.35.35 0 01-.497 0L1.416 1.779v-.014a.35.35 0 01.352-.348zm14.488 12.166H1.768a.355.355 0 01-.352-.354v-9.46l6.353 6.352c.332.332.773.515 1.243.515.47 0 .91-.182 1.242-.515l6.352-6.351v9.459a.353.353 0 01-.35.354z"/></g><defs><clipPath id="cclip0_175_989"><path transform="translate(0 .011)" d="M0 0h18v14.977H0z"/></clipPath></defs></svg><svg viewBox="0 0 25 25" id="page-left" xmlns="http://www.w3.org/2000/svg"><path d="M8.293 12.293a1 1 0 000 1.414l6.364 6.364a1 1 0 001.414-1.414L10.414 13l5.657-5.657a1 1 0 00-1.414-1.414l-6.364 6.364zM10 12H9v2h1v-2z"/></svg><svg viewBox="0 0 25 25" id="page-right" xmlns="http://www.w3.org/2000/svg"><path d="M16.707 12.707a1 1 0 000-1.414l-6.364-6.364A1 1 0 108.93 6.343L14.586 12l-5.657 5.657a1 1 0 001.414 1.414l6.364-6.364zM15 13h1v-2h-1v2z"/></svg><svg viewBox="0 0 18 18" id="phone" xmlns="http://www.w3.org/2000/svg"><path d="M3.625 7.795a15.06 15.06 0 006.59 6.585l2.2-2.205c.275-.275.67-.355 1.015-.245 1.12.37 2.325.57 3.57.57.555 0 1 .445 1 1V17c0 .555-.445 1-1 1C7.61 18 0 10.39 0 1a1 1 0 011-1h3.5c.555 0 1 .445 1 1 0 1.245.2 2.45.57 3.57.11.345.03.74-.245 1.015l-2.2 2.21z"/></svg></svg>