<?xml version="1.0" encoding="utf-8"?><svg viewBox="0 0 39 37" xmlns="http://www.w3.org/2000/svg" xmlns:xlink="http://www.w3.org/1999/xlink"><style>:root>svg{display:none}:root>svg:target{display:block}</style><svg viewBox="0 0 25 25" id="arrow-left" xmlns="http://www.w3.org/2000/svg"><path d="M8.293 12.293a1 1 0 000 1.414l6.364 6.364a1 1 0 001.414-1.414L10.414 13l5.657-5.657a1 1 0 00-1.414-1.414l-6.364 6.364zM10 12H9v2h1v-2z"/></svg><svg viewBox="0 0 25 25" id="arrow-right" xmlns="http://www.w3.org/2000/svg"><path d="M16.707 12.707a1 1 0 000-1.414l-6.364-6.364A1 1 0 108.93 6.343L14.586 12l-5.657 5.657a1 1 0 001.414 1.414l6.364-6.364zM15 13h1v-2h-1v2z"/></svg><svg viewBox="0 0 39 37" id="close" xmlns="http://www.w3.org/2000/svg"><path d="M2.707 1.293l35 34.999M36.293 1.293l-35 35"/></svg><svg viewBox="0 0 24 24" id="info" xmlns="http://www.w3.org/2000/svg"><g clip-path="url(#dclip0_209_1367)"><path d="M13.5 17.25h-.75v-6.704l-.002-.023.002-.023a.75.75 0 00-.75-.75h-1.5a.75.75 0 000 1.5h.75v6h-.75a.75.75 0 000 1.5h3a.75.75 0 000-1.5zm-1.5-9a1.5 1.5 0 100-3 1.5 1.5 0 000 3zM12 0C5.373 0 0 5.372 0 12s5.372 12 12 12 12-5.372 12-12S18.628 0 12 0zm0 22.523C6.21 22.523 1.5 17.79 1.5 12 1.5 6.21 6.21 1.5 12 1.5S22.5 6.21 22.5 12 17.79 22.523 12 22.523z" fill-opacity=".5"/></g><defs><clipPath id="dclip0_209_1367"><path d="M0 0h24v24H0z"/></clipPath></defs></svg><svg viewBox="0 0 18 15" id="mail" xmlns="http://www.w3.org/2000/svg"><g clip-path="url(#eclip0_175_989)"><path d="M18 1.77C18 .799 17.213.01 16.242.01H1.758C.788.011 0 .8 0 1.77v11.46c0 .971.787 1.758 1.758 1.758h14.484c.97 0 1.758-.787 1.758-1.758V1.77zM1.768 1.417h14.488c.194 0 .35.154.35.348v.015L9.26 9.127a.35.35 0 01-.497 0L1.416 1.779v-.014a.35.35 0 01.352-.348zm14.488 12.166H1.768a.355.355 0 01-.352-.354v-9.46l6.353 6.352c.332.332.773.515 1.243.515.47 0 .91-.182 1.242-.515l6.352-6.351v9.459a.353.353 0 01-.35.354z"/></g><defs><clipPath id="eclip0_175_989"><path transform="translate(0 .011)" d="M0 0h18v14.977H0z"/></clipPath></defs></svg><svg viewBox="0 0 25 25" id="page-left" xmlns="http://www.w3.org/2000/svg"><path d="M8.293 12.293a1 1 0 000 1.414l6.364 6.364a1 1 0 001.414-1.414L10.414 13l5.657-5.657a1 1 0 00-1.414-1.414l-6.364 6.364zM10 12H9v2h1v-2z"/></svg><svg viewBox="0 0 25 25" id="page-right" xmlns="http://www.w3.org/2000/svg"><path d="M16.707 12.707a1 1 0 000-1.414l-6.364-6.364A1 1 0 108.93 6.343L14.586 12l-5.657 5.657a1 1 0 001.414 1.414l6.364-6.364zM15 13h1v-2h-1v2z"/></svg><svg viewBox="0 0 18 18" id="phone" xmlns="http://www.w3.org/2000/svg"><path d="M3.625 7.795a15.06 15.06 0 006.59 6.585l2.2-2.205c.275-.275.67-.355 1.015-.245 1.12.37 2.325.57 3.57.57.555 0 1 .445 1 1V17c0 .555-.445 1-1 1C7.61 18 0 10.39 0 1a1 1 0 011-1h3.5c.555 0 1 .445 1 1 0 1.245.2 2.45.57 3.57.11.345.03.74-.245 1.015l-2.2 2.21z"/></svg><svg viewBox="0 0 35 35" id="telegram" xmlns="http://www.w3.org/2000/svg"><path fill-rule="evenodd" clip-rule="evenodd" d="M17.5 35C27.165 35 35 27.165 35 17.5S27.165 0 17.5 0 0 7.835 0 17.5 7.835 35 17.5 35z"/><path fill-rule="evenodd" clip-rule="evenodd" d="M14.292 25.52c-.567 0-.47-.213-.666-.753l-1.668-5.487 12.834-7.613"/><path fill-rule="evenodd" clip-rule="evenodd" d="M14.292 25.52c.437 0 .63-.2.875-.437l2.333-2.268-2.91-1.756"/><path fill-rule="evenodd" clip-rule="evenodd" d="M14.59 21.06l7.052 5.21c.804.444 1.385.214 1.586-.747l2.87-13.528c.294-1.178-.449-1.713-1.219-1.363l-16.856 6.5c-1.151.461-1.144 1.103-.21 1.39l4.326 1.35 10.014-6.319c.473-.287.907-.132.551.184"/><defs><linearGradient id="ipaint0_linear_21_97" x1="13.127" y1="1.46" x2="4.377" y2="21.875" gradientUnits="userSpaceOnUse"><stop stop-color="#37AEE2"/><stop offset="1" stop-color="#1E96C8"/></linearGradient><linearGradient id="ipaint1_linear_21_97" x1="15.309" y1="18.575" x2="17.179" y2="24.623" gradientUnits="userSpaceOnUse"><stop stop-color="#EFF7FC"/><stop offset="1" stop-color="#fff"/></linearGradient></defs></svg></svg>