<svg width="203" height="22" viewBox="0 0 203 22" fill="none" xmlns="http://www.w3.org/2000/svg">
<path d="M5.80469 13.0703V12.9141L10.0234 5.0625C11.9115 2.35417 14.2031 1 16.8984 1H39.3008L36.8008 5.23828H22.5625C20.7135 5.29036 19.2878 6.09766 18.2852 7.66016L17.7773 8.83203H30.1406C33.0312 8.9362 33.6432 10.5312 31.9766 13.6172L30.1992 16.9375C28.3112 19.6328 26.0195 20.9805 23.3242 20.9805H0.921875L3.42188 16.7617H17.6602C19.5091 16.7096 20.9349 15.9023 21.9375 14.3398L22.4648 13.0703H5.80469ZM62.8555 5.19922L53.4609 21H44.3984L52.543 6.58594C53.0898 5.66146 52.6992 5.19922 51.3711 5.19922H41L43.4805 0.980469H69.9453C74.5807 0.720052 76.2734 2.13281 75.0234 5.21875L62.8555 5.19922ZM80.2773 5.55078C81.8398 2.56901 84.0208 1.05859 86.8203 1.01953H109.125L97.4258 20.9805H88.6953L91.9766 14.9258L84.1836 14.9062L80.5898 20.9805H71.3906L80.2773 5.55078ZM91.9766 5.23828C89.763 5.23828 87.8229 7.04818 86.1562 10.668L94.1445 10.6875L97.3281 5.23828H91.9766ZM128.363 20.9805C128.337 21.0065 128.318 21.026 128.305 21.0391H102.172V20.8828L110.766 5.0625C112.654 2.35417 114.945 1 117.641 1H140.043L137.543 5.23828H123.305C121.456 5.29036 120.03 6.09766 119.027 7.66016L113.754 16.6641L114.066 16.8203H121.918L122.953 14.9258L118.793 14.9062L121.059 10.7461L134.438 10.6875L134.418 10.707L128.48 20.8438L128.402 20.9805H128.363ZM146.957 13.2656L144.965 16.6641L145.277 16.8203H162.016L159.516 21.0391H133.383V20.8828L141.977 5.0625C143.865 2.35417 146.156 1 148.852 1H171.254L168.754 5.23828H154.516C152.667 5.29036 151.241 6.09766 150.238 7.66016L149.418 9.04688H162.934L160.434 13.2656H146.957Z" fill="black"/>
<path d="M191.664 21.0391H182.133V20.8828L193.051 1H202.484L191.664 21.0391Z" fill="#FF1F1F"/>
</svg>
