<svg width="36" height="36" viewBox="0 0 36 36" fill="none" xmlns="http://www.w3.org/2000/svg">
<path d="M34.221 13.824L32.982 5.77199C32.9276 5.41793 32.7482 5.09506 32.4764 4.86175C32.2046 4.62845 31.8582 4.50012 31.5 4.49998C23.2995 4.49998 19.0965 0.473985 19.0605 0.439485C18.7795 0.160109 18.3993 0.0032959 18.003 0.0032959C17.6067 0.0032959 17.2266 0.160109 16.9455 0.439485C16.9035 0.473985 12.7005 4.49998 4.50002 4.49998C4.1418 4.50012 3.79547 4.62845 3.52364 4.86175C3.25182 5.09506 3.07247 5.41793 3.01802 5.77199L1.77902 13.824C1.22329 17.4817 1.805 21.2218 3.44536 24.538C5.08573 27.8541 7.70552 30.5861 10.95 32.364L17.28 35.814C17.5004 35.9342 17.7475 35.9973 17.9985 35.9973C18.2496 35.9973 18.4966 35.9342 18.717 35.814L25.047 32.364C28.2921 30.5865 30.9125 27.8547 32.5534 24.5386C34.1943 21.2224 34.7765 17.482 34.221 13.824ZM23.613 29.724L18 32.7915L12.387 29.73C9.68211 28.2493 7.49759 25.973 6.12926 23.2096C4.76094 20.4461 4.27492 17.3289 4.73702 14.28L5.78702 7.46849C10.1666 7.37042 14.4179 5.97158 18 3.44998C21.5807 5.97127 25.8304 7.37059 30.2085 7.46999L31.2585 14.28C31.721 17.3284 31.2357 20.4453 29.8682 23.2087C28.5007 25.9721 26.3171 28.2486 23.613 29.73V29.724Z" fill="#FF1F1F"/>
<path d="M22.9404 12.4395L15.0009 20.379L13.0614 18.4395C12.923 18.2962 12.7575 18.182 12.5745 18.1033C12.3915 18.0247 12.1946 17.9834 11.9955 17.9816C11.7963 17.9799 11.5988 18.0178 11.4144 18.0933C11.2301 18.1687 11.0626 18.2801 10.9218 18.4209C10.7809 18.5617 10.6695 18.7292 10.5941 18.9136C10.5187 19.0979 10.4807 19.2954 10.4825 19.4946C10.4842 19.6938 10.5256 19.8906 10.6042 20.0736C10.6828 20.2566 10.7971 20.4221 10.9404 20.5605L13.9404 23.5605C14.2216 23.8417 14.6031 23.9997 15.0009 23.9997C15.3986 23.9997 15.7801 23.8417 16.0614 23.5605L25.0614 14.5605C25.3346 14.2776 25.4858 13.8987 25.4824 13.5054C25.4789 13.1121 25.3212 12.7359 25.0431 12.4578C24.765 12.1797 24.3888 12.0219 23.9955 12.0185C23.6022 12.0151 23.2233 12.1663 22.9404 12.4395Z" fill="#FF1F1F"/>
</svg>
