<svg width="35" height="35" viewBox="0 0 35 35" fill="none" xmlns="http://www.w3.org/2000/svg">
<mask id="mask0_21_106" style="mask-type:luminance" maskUnits="userSpaceOnUse" x="0" y="0" width="35" height="35">
<path fill-rule="evenodd" clip-rule="evenodd" d="M0 17.5C0 7.83502 7.83502 0 17.5 0C27.165 0 35 7.83502 35 17.5C35 27.165 27.165 35 17.5 35C7.83502 35 0 27.165 0 17.5Z" fill="white"/>
</mask>
<g mask="url(#mask0_21_106)">
<path fill-rule="evenodd" clip-rule="evenodd" d="M0 17.5C0 7.83502 7.83502 0 17.5 0C27.165 0 35 7.83502 35 17.5C35 27.165 27.165 35 17.5 35C7.83502 35 0 27.165 0 17.5Z" fill="white"/>
<path fill-rule="evenodd" clip-rule="evenodd" d="M0 17.5C0 7.83502 7.83502 0 17.5 0C27.165 0 35 7.83502 35 17.5C35 27.165 27.165 35 17.5 35C7.83502 35 0 27.165 0 17.5Z" fill="url(#paint0_radial_21_106)"/>
<path fill-rule="evenodd" clip-rule="evenodd" d="M0 17.5C0 7.83502 7.83502 0 17.5 0C27.165 0 35 7.83502 35 17.5C35 27.165 27.165 35 17.5 35C7.83502 35 0 27.165 0 17.5Z" fill="url(#paint1_radial_21_106)"/>
<path fill-rule="evenodd" clip-rule="evenodd" d="M17.5009 8.16667C14.9661 8.16667 14.648 8.17776 13.6524 8.22306C12.6588 8.26856 11.9806 8.42587 11.3871 8.65668C10.7732 8.89507 10.2525 9.21396 9.73373 9.73294C9.21456 10.2517 8.89567 10.7724 8.6565 11.3861C8.42511 11.9798 8.2676 12.6582 8.22288 13.6514C8.17835 14.647 8.16669 14.9653 8.16669 17.5001C8.16669 20.0349 8.17796 20.352 8.22308 21.3476C8.26877 22.3412 8.42608 23.0195 8.65669 23.6129C8.89528 24.2268 9.21417 24.7475 9.73315 25.2663C10.2517 25.7855 10.7725 26.1051 11.3859 26.3435C11.9798 26.5743 12.6582 26.7316 13.6516 26.7771C14.6472 26.8224 14.9651 26.8335 17.4997 26.8335C20.0347 26.8335 20.3519 26.8224 21.3474 26.7771C22.3411 26.7316 23.0201 26.5743 23.6139 26.3435C24.2276 26.1051 24.7475 25.7855 25.2661 25.2663C25.7853 24.7475 26.1042 24.2268 26.3433 23.6131C26.5728 23.0195 26.7303 22.341 26.777 21.3478C26.8217 20.3522 26.8334 20.0349 26.8334 17.5001C26.8334 14.9653 26.8217 14.6472 26.777 13.6516C26.7303 12.658 26.5728 11.9798 26.3433 11.3863C26.1042 10.7724 25.7853 10.2517 25.2661 9.73294C24.7469 9.21377 24.2278 8.89487 23.6133 8.65668C23.0183 8.42587 22.3397 8.26856 21.3461 8.22306C20.3505 8.17776 20.0336 8.16667 17.498 8.16667H17.5009ZM16.6636 9.84859C16.9121 9.8482 17.1894 9.84859 17.5009 9.84859C19.9929 9.84859 20.2883 9.85754 21.2724 9.90226C22.1824 9.94387 22.6763 10.0959 23.0053 10.2237C23.4408 10.3928 23.7514 10.5951 24.0778 10.9217C24.4045 11.2484 24.6067 11.5595 24.7763 11.9951C24.904 12.3237 25.0563 12.8176 25.0977 13.7276C25.1424 14.7115 25.1522 15.0071 25.1522 17.4979C25.1522 19.9888 25.1424 20.2843 25.0977 21.2682C25.0561 22.1782 24.904 22.6721 24.7763 23.0008C24.6071 23.4363 24.4045 23.7465 24.0778 24.0729C23.7512 24.3996 23.441 24.6018 23.0053 24.771C22.6767 24.8993 22.1824 25.051 21.2724 25.0926C20.2885 25.1373 19.9929 25.1471 17.5009 25.1471C15.0087 25.1471 14.7133 25.1373 13.7294 25.0926C12.8194 25.0506 12.3255 24.8986 11.9963 24.7708C11.5607 24.6016 11.2496 24.3994 10.9229 24.0727C10.5963 23.7461 10.3941 23.4357 10.2245 23C10.0967 22.6714 9.9445 22.1775 9.90308 21.2675C9.85836 20.2836 9.84941 19.988 9.84941 17.4956C9.84941 15.0032 9.85836 14.7092 9.90308 13.7253C9.94469 12.8153 10.0967 12.3214 10.2245 11.9924C10.3937 11.5568 10.5963 11.2457 10.9229 10.919C11.2496 10.5924 11.5607 10.3901 11.9963 10.2206C12.3253 10.0922 12.8194 9.94057 13.7294 9.89876C14.5904 9.85987 14.9241 9.8482 16.6636 9.84626V9.84859ZM22.483 11.3983C21.8647 11.3983 21.363 11.8994 21.363 12.518C21.363 13.1363 21.8647 13.638 22.483 13.638C23.1013 13.638 23.603 13.1363 23.603 12.518C23.603 11.8996 23.1013 11.3979 22.483 11.3979V11.3983ZM17.5009 12.707C14.8539 12.707 12.7078 14.8531 12.7078 17.5001C12.7078 20.1471 14.8539 22.2922 17.5009 22.2922C20.1479 22.2922 22.2932 20.1471 22.2932 17.5001C22.2932 14.8531 20.1477 12.707 17.5007 12.707H17.5009ZM17.5009 14.3889C19.219 14.3889 20.612 15.7817 20.612 17.5001C20.612 19.2182 19.219 20.6112 17.5009 20.6112C15.7825 20.6112 14.3897 19.2182 14.3897 17.5001C14.3897 15.7817 15.7825 14.3889 17.5009 14.3889Z" fill="white"/>
</g>
<defs>
<radialGradient id="paint0_radial_21_106" cx="0" cy="0" r="1" gradientUnits="userSpaceOnUse" gradientTransform="translate(9.29692 37.6957) rotate(-90) scale(34.6876 32.2622)">
<stop stop-color="#FFDD55"/>
<stop offset="0.1" stop-color="#FFDD55"/>
<stop offset="0.5" stop-color="#FF543E"/>
<stop offset="1" stop-color="#C837AB"/>
</radialGradient>
<radialGradient id="paint1_radial_21_106" cx="0" cy="0" r="1" gradientUnits="userSpaceOnUse" gradientTransform="translate(-5.86269 2.52134) rotate(78.6806) scale(15.5055 63.9143)">
<stop stop-color="#3771C8"/>
<stop offset="0.128" stop-color="#3771C8"/>
<stop offset="1" stop-color="#6600FF" stop-opacity="0"/>
</radialGradient>
</defs>
</svg>
